<?xml version="1.0" encoding="UTF-8"?><svg xmlns="http://www.w3.org/2000/svg" viewBox="0 0 2048 2048"><defs><style>.c{fill:#fff;}</style></defs><g id="a"/><g id="b"><g><circle class="c" cx="88.63" cy="1544.03" r="74.29"/><circle class="c" cx="237.22" cy="1544.11" r="66.4"/><circle class="c" cx="385.81" cy="1544.19" r="58.52"/><circle class="c" cx="534.4" cy="1544.26" r="50.63"/><circle class="c" cx="682.99" cy="1544.34" r="42.74"/><circle class="c" cx="831.58" cy="1544.42" r="34.85"/><circle class="c" cx="980.17" cy="1544.49" r="26.97"/><circle class="c" cx="1128.75" cy="1544.57" r="19.08"/><circle class="c" cx="1277.34" cy="1544.65" r="11.19"/><circle class="c" cx="87.74" cy="1692.61" r="74.29"/><circle class="c" cx="236.33" cy="1692.69" r="66.4"/><circle class="c" cx="384.92" cy="1692.77" r="58.52"/><circle class="c" cx="533.51" cy="1692.84" r="50.63"/><circle class="c" cx="682.1" cy="1692.92" r="42.74"/><circle class="c" cx="830.69" cy="1693" r="34.85"/><circle class="c" cx="979.28" cy="1693.07" r="26.97"/><circle class="c" cx="1127.87" cy="1693.15" r="19.08"/><circle class="c" cx="1276.46" cy="1693.23" r="11.19"/><circle class="c" cx="88.63" cy="1841.2" r="74.29"/><circle class="c" cx="237.22" cy="1841.27" r="66.4"/><circle class="c" cx="385.81" cy="1841.35" r="58.52"/><circle class="c" cx="534.4" cy="1841.42" r="50.63"/><circle class="c" cx="682.99" cy="1841.5" r="42.74"/><circle class="c" cx="831.58" cy="1841.58" r="34.85"/><circle class="c" cx="980.17" cy="1841.65" r="26.97"/><circle class="c" cx="1128.75" cy="1841.73" r="19.08"/><circle class="c" cx="1277.34" cy="1841.81" r="11.19"/><circle class="c" cx="88.63" cy="1395.45" r="74.29"/><circle class="c" cx="237.22" cy="1395.53" r="66.4"/><circle class="c" cx="385.81" cy="1395.61" r="58.52"/><circle class="c" cx="534.4" cy="1395.68" r="50.63"/><circle class="c" cx="682.99" cy="1395.76" r="42.74"/><circle class="c" cx="831.58" cy="1395.84" r="34.85"/><circle class="c" cx="980.17" cy="1395.91" r="26.97"/><circle class="c" cx="1128.75" cy="1395.99" r="19.08"/><circle class="c" cx="1277.34" cy="1396.07" r="11.19"/><circle class="c" cx="2020.45" cy="1840.95" r="13.28"/><circle class="c" cx="1871.77" cy="1840.93" r="28.53"/><circle class="c" cx="1723.09" cy="1840.92" r="43.78" transform="translate(-797.05 1757.6) rotate(-45)"/><circle class="c" cx="1574.41" cy="1840.9" r="59.04" transform="translate(-840.58 1652.46) rotate(-45)"/><circle class="c" cx="1425.73" cy="1840.89" r="74.29" transform="translate(-884.12 1547.32) rotate(-45)"/><g><circle class="c" cx="2020.29" cy="1692.37" r="13.28"/><circle class="c" cx="1871.61" cy="1692.35" r="28.53"/><circle class="c" cx="1722.93" cy="1692.34" r="43.78" transform="translate(-692.03 1713.97) rotate(-45)"/><circle class="c" cx="1574.25" cy="1692.32" r="59.04" transform="translate(-735.57 1608.83) rotate(-45)"/><circle class="c" cx="1425.57" cy="1692.31" r="74.29" transform="translate(-779.1 1503.7) rotate(-45)"/></g><g><circle class="c" cx="2020.29" cy="504.03" r="13.28"/><circle class="c" cx="1871.61" cy="504.01" r="28.53"/><circle class="c" cx="1722.93" cy="504" r="43.78" transform="translate(148.25 1365.91) rotate(-45)"/><circle class="c" cx="1574.25" cy="503.98" r="59.04" transform="translate(104.72 1260.78) rotate(-45)"/><circle class="c" cx="1425.57" cy="503.97" r="74.29" transform="translate(61.18 1155.64) rotate(-45)"/></g><circle class="c" cx="1128.56" cy="1246.87" r="74.29" transform="translate(-551.12 1163.22) rotate(-45)"/><circle class="c" cx="1277.15" cy="1246.93" r="62.09" transform="translate(-507.65 1268.3) rotate(-45)"/><circle class="c" cx="1425.73" cy="1246.99" r="49.89" transform="translate(-464.17 1373.38) rotate(-45)"/><circle class="c" cx="1574.31" cy="1247.06" r="37.68"/><circle class="c" cx="1722.89" cy="1247.12" r="25.48"/><circle class="c" cx="1871.47" cy="1247.18" r="13.28"/><g><circle class="c" cx="2020.29" cy="1098.35" r="13.28"/><circle class="c" cx="1871.61" cy="1098.34" r="28.53"/><circle class="c" cx="1722.93" cy="1098.32" r="43.78" transform="translate(-272 1539.99) rotate(-45)"/><circle class="c" cx="1574.25" cy="1098.31" r="59.04" transform="translate(-315.53 1434.85) rotate(-45)"/><circle class="c" cx="1425.57" cy="1098.29" r="74.29" transform="translate(-359.07 1329.71) rotate(-45)"/></g><g><circle class="c" cx="2021.27" cy="949.77" r="13.28"/><circle class="c" cx="1872.59" cy="949.76" r="28.53"/><circle class="c" cx="1723.91" cy="949.74" r="43.78" transform="translate(-166.65 1497.16) rotate(-45)"/><circle class="c" cx="1575.23" cy="949.73" r="59.04" transform="translate(-210.18 1392.02) rotate(-45)"/><circle class="c" cx="1426.55" cy="949.71" r="74.29" transform="translate(-253.72 1286.88) rotate(-45)"/></g><g><circle class="c" cx="2021.27" cy="801.19" r="13.28"/><circle class="c" cx="1872.59" cy="801.18" r="28.53"/><circle class="c" cx="1723.91" cy="801.16" r="43.78" transform="translate(-61.59 1453.64) rotate(-45)"/><circle class="c" cx="1575.23" cy="801.15" r="59.04" transform="translate(-105.12 1348.5) rotate(-45)"/><circle class="c" cx="1426.55" cy="801.13" r="74.29" transform="translate(-148.66 1243.37) rotate(-45)"/></g><g><circle class="c" cx="2019.58" cy="652.61" r="13.28"/><circle class="c" cx="1870.89" cy="652.59" r="28.53"/><circle class="c" cx="1722.21" cy="652.58" r="43.78" transform="translate(42.98 1408.93) rotate(-45)"/><circle class="c" cx="1573.53" cy="652.56" r="59.04" transform="translate(-.56 1303.79) rotate(-45)"/><circle class="c" cx="1424.85" cy="652.55" r="74.29" transform="translate(-44.09 1198.65) rotate(-45)"/></g><circle class="c" cx="1277.15" cy="206.81" r="74.29" transform="translate(227.83 963.65) rotate(-45)"/><circle class="c" cx="1425.73" cy="206.87" r="62.09" transform="translate(271.31 1068.73) rotate(-45)"/><circle class="c" cx="1574.31" cy="206.93" r="49.89" transform="translate(314.78 1173.81) rotate(-45)"/><circle class="c" cx="1722.89" cy="206.99" r="37.68"/><circle class="c" cx="1871.47" cy="207.05" r="25.48"/><circle class="c" cx="2020.05" cy="207.11" r="13.28"/><circle class="c" cx="88.63" cy="206.81" r="74.29" transform="translate(-120.27 123.24) rotate(-45)"/><circle class="c" cx="237.09" cy="206.81" r="74.29" transform="translate(-76.79 228.22) rotate(-45)"/><circle class="c" cx="385.54" cy="206.81" r="74.29" transform="translate(-33.31 333.19) rotate(-45)"/><circle class="c" cx="533.99" cy="206.81" r="74.29" transform="translate(10.17 438.16) rotate(-45)"/><circle class="c" cx="682.45" cy="206.81" r="74.29" transform="translate(53.65 543.14) rotate(-45)"/><circle class="c" cx="830.9" cy="206.81" r="74.29" transform="translate(97.13 648.11) rotate(-45)"/><circle class="c" cx="979.36" cy="206.81" r="74.29" transform="translate(140.61 753.08) rotate(-45)"/><circle class="c" cx="1127.81" cy="206.81" r="74.29" transform="translate(184.09 858.05) rotate(-45)"/><circle class="c" cx="88.63" cy="1098.35" r="74.29"/><circle class="c" cx="237.22" cy="1098.43" r="66.4"/><circle class="c" cx="385.81" cy="1098.5" r="58.52"/><circle class="c" cx="534.4" cy="1098.58" r="50.63"/><circle class="c" cx="682.99" cy="1098.66" r="42.74"/><circle class="c" cx="831.58" cy="1098.73" r="34.85"/><circle class="c" cx="980.17" cy="1098.81" r="26.97"/><circle class="c" cx="1128.75" cy="1098.89" r="19.08"/><circle class="c" cx="1277.34" cy="1098.96" r="11.19"/><circle class="c" cx="88.63" cy="949.71" r="74.29"/><circle class="c" cx="237.22" cy="949.79" r="66.4"/><circle class="c" cx="385.81" cy="949.86" r="58.52"/><circle class="c" cx="534.4" cy="949.94" r="50.63"/><circle class="c" cx="682.99" cy="950.02" r="42.74"/><circle class="c" cx="831.58" cy="950.09" r="34.85"/><circle class="c" cx="980.17" cy="950.17" r="26.97"/><circle class="c" cx="1128.75" cy="950.25" r="19.08"/><circle class="c" cx="1277.34" cy="950.32" r="11.19"/><circle class="c" cx="88.63" cy="801.13" r="74.29"/><circle class="c" cx="237.22" cy="801.21" r="66.4"/><circle class="c" cx="385.81" cy="801.28" r="58.52"/><circle class="c" cx="534.4" cy="801.36" r="50.63"/><circle class="c" cx="682.99" cy="801.44" r="42.74"/><circle class="c" cx="831.58" cy="801.51" r="34.85"/><circle class="c" cx="980.17" cy="801.59" r="26.97"/><circle class="c" cx="1128.75" cy="801.67" r="19.08"/><circle class="c" cx="1277.34" cy="801.74" r="11.19"/><circle class="c" cx="88.63" cy="652.55" r="74.29"/><circle class="c" cx="237.22" cy="652.63" r="66.4"/><circle class="c" cx="385.81" cy="652.7" r="58.52"/><circle class="c" cx="534.4" cy="652.78" r="50.63"/><circle class="c" cx="682.99" cy="652.86" r="42.74"/><circle class="c" cx="831.58" cy="652.93" r="34.85"/><circle class="c" cx="980.17" cy="653.01" r="26.97"/><circle class="c" cx="1128.75" cy="653.09" r="19.08"/><circle class="c" cx="1277.34" cy="653.16" r="11.19"/><circle class="c" cx="88.63" cy="504.03" r="74.29"/><circle class="c" cx="237.22" cy="504.11" r="66.4"/><circle class="c" cx="385.81" cy="504.18" r="58.52"/><circle class="c" cx="534.4" cy="504.26" r="50.63"/><circle class="c" cx="682.99" cy="504.33" r="42.74"/><circle class="c" cx="831.58" cy="504.41" r="34.85"/><circle class="c" cx="980.17" cy="504.49" r="26.97"/><circle class="c" cx="1128.75" cy="504.56" r="19.08"/><circle class="c" cx="1277.34" cy="504.64" r="11.19"/><circle class="c" cx="87.74" cy="355.69" r="74.29"/><circle class="c" cx="236.33" cy="355.77" r="66.4"/><circle class="c" cx="384.92" cy="355.85" r="58.52"/><circle class="c" cx="533.51" cy="355.92" r="50.63"/><circle class="c" cx="682.1" cy="356" r="42.74"/><circle class="c" cx="830.69" cy="356.08" r="34.85"/><circle class="c" cx="979.28" cy="356.15" r="26.97"/><circle class="c" cx="1127.87" cy="356.23" r="19.08"/><circle class="c" cx="1276.46" cy="356.31" r="11.19"/><g><circle class="c" cx="2020.45" cy="355.45" r="13.28"/><circle class="c" cx="1871.77" cy="355.43" r="28.53"/><circle class="c" cx="1723.09" cy="355.42" r="43.78" transform="translate(253.36 1322.51) rotate(-45)"/><circle class="c" cx="1574.41" cy="355.4" r="59.04" transform="translate(209.83 1217.37) rotate(-45)"/><circle class="c" cx="1425.73" cy="355.39" r="74.29" transform="translate(166.29 1112.23) rotate(-45)"/></g><circle class="c" cx="1128.56" cy="1395.45" r="74.29" transform="translate(-656.19 1206.73) rotate(-45)"/><circle class="c" cx="1277.15" cy="1395.51" r="62.09" transform="translate(-612.71 1311.81) rotate(-45)"/><circle class="c" cx="1425.73" cy="1395.58" r="49.89" transform="translate(-569.24 1416.89) rotate(-45)"/><circle class="c" cx="1574.31" cy="1395.64" r="37.68"/><circle class="c" cx="1722.89" cy="1395.7" r="25.48"/><circle class="c" cx="1871.47" cy="1395.76" r="13.28"/><circle class="c" cx="1128.6" cy="1544.65" r="74.29" transform="translate(-761.67 1250.46) rotate(-45)"/><circle class="c" cx="1277.18" cy="1544.71" r="62.09" transform="translate(-718.2 1355.54) rotate(-45)"/><circle class="c" cx="1425.76" cy="1544.77" r="49.89" transform="translate(-674.72 1460.62) rotate(-45)"/><circle class="c" cx="1574.34" cy="1544.83" r="37.68"/><circle class="c" cx="1722.92" cy="1544.89" r="25.48"/><circle class="c" cx="1871.5" cy="1544.95" r="13.28"/><circle class="c" cx="87.74" cy="1247.18" r="74.29"/><circle class="c" cx="236.33" cy="1247.26" r="66.4"/><circle class="c" cx="384.92" cy="1247.33" r="58.52"/><circle class="c" cx="533.51" cy="1247.41" r="50.63"/><circle class="c" cx="682.1" cy="1247.48" r="42.74"/><circle class="c" cx="830.69" cy="1247.56" r="34.85"/><circle class="c" cx="979.28" cy="1247.64" r="26.97"/><circle class="c" cx="1127.87" cy="1247.71" r="19.08"/><circle class="c" cx="1276.46" cy="1247.79" r="11.19"/><circle class="c" cx="831.4" cy="1246.87" r="74.29" transform="translate(-638.16 953.09) rotate(-45)"/><circle class="c" cx="979.98" cy="1246.87" r="74.29" transform="translate(-594.64 1058.15) rotate(-45)"/><circle class="c" cx="682.1" cy="1246.87" r="74.29" transform="translate(-681.89 847.52) rotate(-45)"/></g></g></svg>